<svg width="54" height="35" viewBox="0 0 54 35" fill="none" xmlns="http://www.w3.org/2000/svg">
<path d="M47.338 13.1827C49.3354 13.8485 50.9333 15.047 52.1317 16.778C53.3302 18.3759 53.9294 20.1736 53.9294 22.171C54.0626 24.1684 53.5299 26.1657 52.3315 28.1631C51.2662 30.0274 49.5352 31.6253 47.1383 32.9569C43.2767 34.9542 39.8811 35.4869 36.9516 34.5548C34.0221 33.4895 31.9582 31.8916 30.7597 29.761C30.0939 28.6958 29.5613 27.231 29.1618 25.3668C28.8955 23.5026 28.7623 21.5718 28.7623 19.5744C28.8955 17.4438 29.1618 15.3799 29.5613 13.3825C29.9608 11.3851 30.56 9.72061 31.3589 8.38902C32.0247 7.4569 32.8237 6.45821 33.7558 5.39294C34.5548 4.46083 35.4869 3.52871 36.5521 2.5966C37.7506 1.66449 39.0822 0.798954 40.5469 0L47.5378 0.399477C46.6057 1.46475 45.7401 2.46344 44.9412 3.39555C44.2754 4.19451 43.6762 4.92688 43.1435 5.59268C42.6109 6.25847 42.0782 6.85769 41.5456 7.39033C40.6135 8.32244 39.8811 9.25455 39.3485 10.1867C38.8159 10.9856 38.3498 11.8512 37.9503 12.7833C37.684 13.7154 37.684 14.6475 37.9503 15.5796C39.6814 13.7154 41.6788 12.7833 43.9425 12.7833C45.0077 12.7833 46.1396 12.9164 47.338 13.1827ZM19.7741 14.1814C21.6383 15.2467 22.9699 16.7115 23.7689 18.5757C24.701 20.3068 25.0339 22.171 24.7676 24.1684C24.5013 26.1657 23.6357 28.03 22.171 29.761C20.8394 31.4921 18.842 32.8237 16.1788 33.7558C12.0509 35.0874 8.65533 35.0208 5.99216 33.5561C3.32897 31.9582 1.53133 30.0274 0.599216 27.7637C0.199739 26.5652 0 25.0339 0 23.1697C0 21.3054 0.199739 19.3746 0.599216 17.3773C0.998693 15.3799 1.53133 13.4491 2.19712 11.5848C2.86292 9.72061 3.72845 8.18928 4.79372 6.99085C5.59268 6.05874 6.52479 5.1932 7.59006 4.39425C8.52218 3.72845 9.58745 2.99608 10.7859 2.19712C12.1175 1.39817 13.5822 0.665795 15.1801 0L22.171 1.79765C21.1057 2.72976 20.107 3.52871 19.1749 4.19451C18.3759 4.8603 17.6436 5.45952 16.9778 5.99216C16.312 6.52479 15.6462 7.05743 14.9804 7.59006C14.0483 8.38902 13.2493 9.18797 12.5835 9.98693C11.9177 10.6527 11.3185 11.4517 10.7859 12.3838C10.2532 13.1827 10.0535 14.0483 10.1867 14.9804C11.2519 14.1814 12.3172 13.7154 13.3825 13.5822C14.5809 13.3159 15.6462 13.2493 16.5783 13.3825C17.6436 13.5156 18.7088 13.782 19.7741 14.1814Z" fill="url(#paint0_linear_556_2197)" fill-opacity="0.7"/>
<defs>
<linearGradient id="paint0_linear_556_2197" x1="53.4802" y1="35.6588" x2="8.92676" y2="0.0160653" gradientUnits="userSpaceOnUse">
<stop stop-color="#ED276E"/>
<stop offset="1" stop-color="#1A9BD7"/>
</linearGradient>
</defs>
</svg>
