<svg width="66" height="66" viewBox="0 0 66 66" fill="none" xmlns="http://www.w3.org/2000/svg">
<path d="M16.5 60.5H49.5C51.688 60.5 53.7865 59.6308 55.3336 58.0836C56.8808 56.5365 57.75 54.438 57.75 52.25V19.25C57.75 17.7913 57.1705 16.3924 56.1391 15.3609C55.1076 14.3295 53.7087 13.75 52.25 13.75H46.75V8.25C46.75 7.52065 46.4603 6.82118 45.9445 6.30546C45.4288 5.78973 44.7293 5.5 44 5.5C43.2707 5.5 42.5712 5.78973 42.0555 6.30546C41.5397 6.82118 41.25 7.52065 41.25 8.25V13.75H24.75V8.25C24.75 7.52065 24.4603 6.82118 23.9445 6.30546C23.4288 5.78973 22.7293 5.5 22 5.5C21.2707 5.5 20.5712 5.78973 20.0555 6.30546C19.5397 6.82118 19.25 7.52065 19.25 8.25V13.75H13.75C12.2913 13.75 10.8924 14.3295 9.86091 15.3609C8.82946 16.3924 8.25 17.7913 8.25 19.25V52.25C8.25 54.438 9.11919 56.5365 10.6664 58.0836C12.2135 59.6308 14.312 60.5 16.5 60.5ZM13.75 34.375C13.75 34.0103 13.8949 33.6606 14.1527 33.4027C14.4106 33.1449 14.7603 33 15.125 33H50.875C51.2397 33 51.5894 33.1449 51.8473 33.4027C52.1051 33.6606 52.25 34.0103 52.25 34.375V52.25C52.25 52.9793 51.9603 53.6788 51.4445 54.1945C50.9288 54.7103 50.2293 55 49.5 55H16.5C15.7707 55 15.0712 54.7103 14.5555 54.1945C14.0397 53.6788 13.75 52.9793 13.75 52.25V34.375Z" fill="#94B7D2"/>
</svg>
