<svg width="20" height="17" viewBox="0 0 20 17" fill="none" xmlns="http://www.w3.org/2000/svg">
<path d="M20.0003 1.91207C19.2641 2.24669 18.4706 2.46657 17.6484 2.57174C18.4897 2.06504 19.1399 1.26197 19.4458 0.296371C18.6523 0.77439 17.7727 1.109 16.8454 1.30021C16.0901 0.478018 15.0289 0 13.8243 0C11.5776 0 9.74201 1.83559 9.74201 4.1014C9.74201 4.42645 9.78025 4.74194 9.84718 5.03831C6.44369 4.86623 3.41305 3.2314 1.39581 0.755269C1.04208 1.35757 0.841312 2.06504 0.841312 2.81075C0.841312 4.23524 1.55834 5.49721 2.66734 6.21424C1.98856 6.21424 1.35757 6.02303 0.803071 5.73622V5.7649C0.803071 7.75346 2.21801 9.41696 4.09184 9.78981C3.49033 9.95515 2.85858 9.97806 2.24669 9.85674C2.50635 10.6717 3.0149 11.3849 3.70083 11.8959C4.38677 12.4069 5.21561 12.6901 6.07083 12.7057C4.62116 13.8535 2.82414 14.4738 0.975157 14.4648C0.650105 14.4648 0.325052 14.4457 0 14.4075C1.81647 15.5738 3.97711 16.2526 6.29072 16.2526C13.8243 16.2526 17.9639 10.0001 17.9639 4.57942C17.9639 4.39777 17.9639 4.22568 17.9544 4.04403C18.7574 3.47041 19.4458 2.74382 20.0003 1.91207Z" fill="white"/>
</svg>
