<svg width="19" height="14" viewBox="0 0 19 14" fill="none" xmlns="http://www.w3.org/2000/svg">
<path d="M7.59988 9.49985L12.5303 6.6499L7.59988 3.79994V9.49985ZM18.5817 2.06147C18.7052 2.50796 18.7907 3.10645 18.8477 3.86644C18.9142 4.62643 18.9427 5.28192 18.9427 5.85191L18.9997 6.6499C18.9997 8.73036 18.8477 10.2598 18.5817 11.2383C18.3442 12.0933 17.7932 12.6443 16.9382 12.8818C16.4917 13.0053 15.6748 13.0908 14.4208 13.1478C13.1858 13.2143 12.0553 13.2428 11.0103 13.2428L9.49985 13.2998C5.51941 13.2998 3.03995 13.1478 2.06147 12.8818C1.20648 12.6443 0.65549 12.0933 0.417993 11.2383C0.294495 10.7918 0.208997 10.1933 0.151998 9.43335C0.0854987 8.67336 0.056999 8.01787 0.056999 7.44788L0 6.6499C0 4.56943 0.151998 3.03995 0.417993 2.06147C0.65549 1.20648 1.20648 0.65549 2.06147 0.417994C2.50796 0.294495 3.32495 0.208997 4.57893 0.151997C5.81391 0.0854985 6.94439 0.0569991 7.98937 0.0569991L9.49985 0C13.4803 0 15.9597 0.151998 16.9382 0.417994C17.7932 0.65549 18.3442 1.20648 18.5817 2.06147Z" fill="white"/>
</svg>
