<svg width="66" height="66" viewBox="0 0 66 66" fill="none" xmlns="http://www.w3.org/2000/svg">
<path d="M64.363 10.8626C64.0436 9.42643 64.0238 9.24031 60.799 9.24031H57.5571L56.909 7.45963C56.0536 4.87639 53.1787 2.41459 50.3143 1.69651C48.6564 1.28203 42.7507 1.20943 28.3376 1.30975C10.218 1.43647 8.47161 1.53943 6.67905 2.34595C2.66625 4.14907 0.455246 8.69515 1.64061 12.6987C2.46825 15.4892 4.20801 17.555 6.67905 18.6651C8.47029 19.4703 10.2166 19.5548 28.3363 19.6802C42.748 19.7818 48.655 19.667 50.3116 19.2512C53.1853 18.5318 56.0523 15.9815 56.9156 13.3745C57.5664 11.4143 57.5954 11.3945 59.7206 11.5345L61.8656 11.6757L62.0082 18.442L62.1494 25.207L55.8622 26.692C52.4091 27.5091 48.0835 28.5532 46.2526 29.0139C44.4231 29.4733 39.9892 30.5517 36.4002 31.4097L29.8741 32.9713L29.8728 36.398C29.8714 39.8036 30.1698 39.8353 28.1356 41.5354L26.4012 43.2448V64.6803H35.6412V43.2448L33.7522 41.513C31.7379 39.8287 31.7749 39.7059 31.928 37.1147L32.1273 34.451L34.4558 33.8715C35.7243 33.5507 39.7648 32.5687 43.4252 31.6829C47.0856 30.7999 53.3701 29.2832 57.3842 28.3117L64.6812 26.5481V19.5152C64.6812 15.6502 64.5373 11.6599 64.363 10.8626ZM32.7042 58.9198C32.7042 60.0313 32.4943 60.2609 31.3644 60.3784C29.9414 60.5236 29.3263 59.8187 29.6299 58.3931C29.7487 57.8374 30.2384 57.5972 31.2522 57.5972C32.5405 57.5985 32.7042 57.749 32.7042 58.9198Z" fill="#94B7D2"/>
</svg>
