<svg width="35" height="35" viewBox="0 0 35 35" fill="none" xmlns="http://www.w3.org/2000/svg">
<path d="M17.6175 31.8414C25.5395 31.8414 31.9597 25.4201 31.9597 17.4992C31.9597 9.57834 25.5395 3.15699 17.6175 3.15699C9.69665 3.15699 3.2753 9.57834 3.2753 17.4992C3.2753 25.4201 9.69665 31.8414 17.6175 31.8414ZM17.6175 4.30432C24.8931 4.30432 30.8124 10.2236 30.8124 17.4992C30.8124 24.7748 24.8931 30.6941 17.6175 30.6941C10.3409 30.6941 4.42264 24.7748 4.42264 17.4992C4.42264 10.2236 10.3409 4.30432 17.6175 4.30432Z" fill="black"/>
<path d="M18.4919 23.6653L19.3035 24.4769L26.2794 17.4999L19.3035 10.523L18.4919 11.3345L24.0831 16.9257H10.1631V18.0731H24.0831L18.4919 23.6653Z" fill="black"/>
</svg>
