<svg width="66" height="66" viewBox="0 0 66 66" fill="none" xmlns="http://www.w3.org/2000/svg">
<path d="M50.8284 46.1126C49.0786 46.5308 47.252 46.7522 45.374 46.7522C32.4644 46.7522 21.999 36.2868 21.999 23.3772C21.999 22.0477 22.11 20.7441 22.3233 19.4751C22.2238 19.5708 22.1209 19.659 22.0126 19.7412C21.2409 20.327 20.2799 20.5445 18.3577 20.9794L16.6078 21.3753C9.84364 22.9058 6.46158 23.671 5.65693 26.2585C4.85228 28.8461 7.15797 31.5422 11.7693 36.9344L12.9623 38.3295C14.2727 39.8618 14.9279 40.628 15.2226 41.5759C15.5174 42.5238 15.4184 43.546 15.2202 45.5906L15.0399 47.4518C14.3427 54.6464 13.9941 58.2436 16.1007 59.8428C18.2072 61.4419 21.3739 59.9841 27.7072 57.068L29.3457 56.3134C31.1453 55.4849 32.0451 55.0707 32.999 55.0707C33.953 55.0707 34.8528 55.4849 36.6524 56.3134L38.2909 57.068C44.6241 59.9841 47.7907 61.4419 49.8975 59.8428C52.004 58.2436 51.6553 54.6464 50.9582 47.4518L50.8284 46.1126Z" fill="#1A9BD7" fill-opacity="0.37"/>
<path opacity="0.5" d="M25.1702 14.8765L24.269 16.493C23.2792 18.2688 22.7843 19.1566 22.0126 19.7424C22.1209 19.6602 22.2238 19.572 22.3233 19.4763C22.11 20.7453 21.999 22.0489 21.999 23.3784C21.999 36.288 32.4643 46.7534 45.3741 46.7534C47.2521 46.7534 49.0784 46.532 50.8285 46.1138L50.7779 45.5918C50.5796 43.5472 50.4806 42.525 50.7754 41.5771C51.0702 40.6292 51.7253 39.863 53.0356 38.3307L54.2289 36.9356C58.8401 31.5434 61.1457 28.8471 60.341 26.2597C59.5364 23.6722 56.1544 22.907 49.3902 21.3765L47.6404 20.9806C45.7182 20.5456 44.757 20.3282 43.9854 19.7424C43.2137 19.1566 42.7187 18.2688 41.729 16.4931L40.8278 14.8764C37.3444 8.62775 35.6028 5.50342 32.9991 5.50342C30.3952 5.50342 28.6536 8.62778 25.1702 14.8765Z" fill="#C8416F" fill-opacity="0.41"/>
</svg>
