<svg width="49" height="16" viewBox="0 0 49 16" fill="none" xmlns="http://www.w3.org/2000/svg">
<path style="mix-blend-mode:hard-light" opacity="0.2" d="M0.275987 13.1496C1.06653 14.4081 1.82966 14.2894 3.88828 15.3467C5.94691 16.4041 10.4905 14.9233 11.7826 14.2574C13.0748 13.5916 21.0525 12.4171 22.2122 10.5403C23.372 8.66341 31.2212 5.37798 34.8248 4.08649C38.4284 2.795 48.3283 3.63648 48.9784 1.86571C49.6245 0.094943 35.8561 -0.724588 34.8248 0.801054C33.7935 2.3267 28.9058 3.14623 27.104 4.20357C25.3022 5.2609 18.2234 9.24879 13.2072 10.6574C8.18707 12.0659 -1.78264 9.86414 0.275987 13.1496Z" fill="url(#paint0_linear_484_1143)"/>
<defs>
<linearGradient id="paint0_linear_484_1143" x1="2.18454" y1="7.54388" x2="48.9992" y2="7.54388" gradientUnits="userSpaceOnUse">
<stop stop-color="#D59687"/>
<stop offset="0.37" stop-color="#D89A8D"/>
<stop offset="1" stop-color="#808080"/>
</linearGradient>
</defs>
</svg>
